<svg width="286" height="73" viewBox="0 0 286 73" fill="none"
  xmlns="http://www.w3.org/2000/svg">
  <path d="M89.5541 38.4006L89.3141 46.6408L65.5206 46.5442L65.5244 45.5941L66.3506 45.5974C67.5485 45.6023 68.3753 45.4542 68.8309 45.1531C69.3003 44.8521 69.5983 44.3851 69.7248 43.7522C69.8651 43.1056 69.94 41.6119 69.9495 39.2712L70.0053 25.5362C70.0143 23.3056 69.9513 21.8664 69.8162 21.2187C69.695 20.571 69.4214 20.1224 68.9955 19.8728C68.5835 19.6233 67.6683 19.4956 66.2501 19.4899L65.6304 19.4874L65.6343 18.5373L79.0801 18.5919L79.0762 19.542L77.837 19.5369C76.46 19.5313 75.5577 19.6447 75.1299 19.8771C74.7021 20.0956 74.4113 20.5144 74.2573 21.1334C74.1171 21.7525 74.0422 23.2255 74.0328 25.5526L73.9733 40.2169C73.965 42.241 74.015 43.508 74.1231 44.018C74.2312 44.5279 74.5256 44.9284 75.0063 45.2195C75.5009 45.4969 76.5537 45.6389 78.1647 45.6454L80.2921 45.654C82.0133 45.661 83.2875 45.5147 84.1149 45.2152C84.9561 44.9156 85.7505 44.2579 86.4982 43.242C87.2597 42.2262 87.9547 40.6111 88.5833 38.3967L89.5541 38.4006ZM108.535 43.6206L109.299 43.6238C109.166 45.9778 108.004 47.1504 105.815 47.1415C104.879 47.1377 104.136 46.8868 103.587 46.3889C103.052 45.891 102.704 45.1529 102.543 44.1746C101.162 45.1467 99.8991 45.8782 98.7542 46.3693C97.6231 46.8604 96.6101 47.1041 95.715 47.1005C94.5722 47.0959 93.589 46.7614 92.7655 46.0971C91.9421 45.4328 91.5325 44.5568 91.5369 43.469C91.5427 42.0508 92.2362 40.8143 93.6174 39.7597C95.0125 38.7051 96.9306 37.6801 99.3719 36.6849L102.579 35.3967L102.582 34.5705C102.587 33.4001 102.514 32.553 102.365 32.0291C102.216 31.5053 101.825 31.0355 101.193 30.6199C100.562 30.2042 99.7295 29.9943 98.6968 29.9901C96.6314 29.9817 95.4788 30.6655 95.2392 32.0415C95.0132 33.4451 94.432 34.145 93.4957 34.1412C92.6557 34.1378 92.2374 33.7368 92.2406 32.9381C92.2438 32.1533 92.8049 31.3156 93.9239 30.4251C95.0429 29.5209 96.7796 29.0735 99.1342 29.0831C100.883 29.0902 102.238 29.3711 103.2 29.9258C104.161 30.4805 104.792 31.1095 105.092 31.813C105.406 32.5165 105.56 33.5912 105.554 35.037L105.526 41.8735C105.52 43.4707 105.598 44.4969 105.762 44.9519C105.925 45.407 106.282 45.6356 106.833 45.6379C107.742 45.6416 108.309 44.9692 108.535 43.6206ZM102.575 36.3674L100.32 37.2671C96.7612 38.6984 94.9776 40.5088 94.9687 42.6981C94.9652 43.5656 95.1895 44.2687 95.6417 44.8076C96.094 45.3326 96.685 45.5967 97.4148 45.5996C98.062 45.6023 98.8133 45.3919 99.6687 44.9685C100.524 44.5451 101.484 43.9087 102.547 43.0593L102.575 36.3674ZM129.607 47.4653L128.678 47.4615L123.693 34.0159L118.496 47.4202L117.587 47.4165L112.478 33.9704C111.892 32.4396 111.455 31.5221 111.167 31.218C110.879 30.9139 110.301 30.7601 109.434 30.7566L109.438 29.8065L117.162 29.8379L117.159 30.788C116.291 30.7845 115.699 30.8647 115.381 31.0286C115.064 31.1788 114.905 31.4466 114.903 31.8322C114.902 32.1076 115.167 32.9142 115.699 34.252L119.09 43.333L124.391 29.8672L125.197 29.8705L130.223 43.3782L133.98 33.7892C134.383 32.7719 134.585 32.16 134.586 31.9534C134.589 31.2787 133.895 30.911 132.505 30.8503L132.508 29.9002L138.002 29.9225L137.999 30.8726C137.338 30.8837 136.814 31.0124 136.427 31.2586C136.054 31.4912 135.708 32.0268 135.388 32.8655L134.929 34.0616L129.607 47.4653ZM148.955 43.6815L152.918 34.2998C153.488 32.9252 153.773 32.1621 153.774 32.0107C153.777 31.3222 153.014 30.9611 151.486 30.9273L151.489 29.9773L157.438 30.0014L157.434 30.9515C156.511 30.9891 155.836 31.2342 155.407 31.6868C154.978 32.1257 154.444 33.1081 153.805 34.6339L146.192 52.7995C145.469 54.5315 144.831 55.7063 144.277 56.3236C143.724 56.9548 143.117 57.269 142.456 57.2663C141.561 57.2627 141.115 56.8547 141.118 56.0423C141.122 55.106 141.841 54.3172 143.276 53.6758C144.118 53.3074 144.676 52.993 144.953 52.7325C145.243 52.4721 145.527 51.9982 145.806 51.3108L147.433 47.2898L141.127 33.6323C140.567 32.4321 140.102 31.6729 139.732 31.3547C139.361 31.0365 138.728 30.8755 137.833 30.8719L137.837 29.9218L145.603 29.9534L145.599 30.9034C144.236 30.9392 143.553 31.2187 143.551 31.742C143.55 31.9485 143.816 32.6243 144.348 33.7693L148.955 43.6815ZM173.132 35.7864L161.339 35.7385C161.28 36.5507 161.25 37.1564 161.249 37.5557C161.237 40.5299 161.689 42.7693 162.605 44.2739C163.536 45.7648 164.923 46.514 166.769 46.5215C169.275 46.5317 171.055 45.4167 172.111 43.1765L173.102 43.1805C172.656 44.5832 171.777 45.6812 170.466 46.4745C169.155 47.2541 167.728 47.6407 166.186 47.6345C164.754 47.6287 163.399 47.2651 162.121 46.5439C160.857 45.809 159.822 44.779 159.015 43.4538C158.208 42.1287 157.808 40.5229 157.816 38.6365C157.827 35.9652 158.621 33.7515 160.197 31.9954C161.774 30.2256 163.74 29.3454 166.095 29.355C168.312 29.364 170.023 30.0456 171.229 31.3999C172.436 32.7543 173.07 34.2164 173.132 35.7864ZM169.521 34.9456C169.564 34.629 169.586 34.3468 169.587 34.099C169.592 32.8873 169.237 31.9495 168.524 31.2857C167.825 30.6081 166.958 30.2673 165.926 30.2631C163.42 30.2529 161.919 31.8028 161.425 34.9127L169.521 34.9456ZM181.795 33.7355C182.268 32.5119 183.029 31.4892 184.079 30.6672C185.143 29.8454 186.177 29.4365 187.182 29.4406C188.091 29.4443 188.806 29.7294 189.327 30.2961C189.848 30.8628 190.107 31.4422 190.105 32.0342C190.103 32.4336 189.964 32.7772 189.688 33.0653C189.425 33.3534 189.101 33.4966 188.715 33.4951C188.027 33.4923 187.505 32.9807 187.152 31.9603C186.907 31.2708 186.536 30.9251 186.04 30.9231C185.448 30.9207 184.738 31.324 183.908 32.133C183.079 32.9283 182.545 33.7592 182.308 34.6257C182.07 35.4922 181.948 36.6828 181.942 38.1974L181.93 41.2129C181.922 43.0167 181.938 44.1528 181.978 44.6211C182.031 45.0895 182.229 45.4483 182.572 45.6975C182.916 45.9468 183.528 46.0732 184.409 46.0768L184.987 46.0791L184.984 47.0292L175.999 46.9927L176.003 46.0426L176.437 46.0444C177.263 46.0477 177.849 45.94 178.194 45.7211C178.553 45.4884 178.767 45.1657 178.838 44.7529C178.908 44.3401 178.948 43.1561 178.956 41.2008L178.975 36.4297C178.982 34.6122 178.959 33.4761 178.906 33.0215C178.867 32.5532 178.675 32.1944 178.332 31.9451C177.989 31.6821 177.377 31.5488 176.496 31.5452L176.062 31.5435L176.066 30.6141C177.361 30.4678 179.056 30.0685 181.151 29.4161C181.546 30.5055 181.761 31.9453 181.795 33.7355ZM206.675 35.9226L194.881 35.8747C194.823 36.6869 194.793 37.2926 194.791 37.6919C194.779 40.6661 195.231 42.9055 196.148 44.4101C197.078 45.901 198.466 46.6502 200.311 46.6577C202.817 46.6679 204.598 45.5529 205.653 43.3127L206.645 43.3167C206.198 44.7194 205.319 45.8174 204.008 46.6107C202.697 47.3903 201.27 47.7769 199.728 47.7706C198.296 47.7648 196.941 47.4013 195.663 46.6801C194.4 45.9452 193.364 44.9152 192.557 43.59C191.75 42.2648 191.35 40.6591 191.358 38.7727C191.369 36.1014 192.163 33.8877 193.74 32.1316C195.317 30.3617 197.282 29.4816 199.637 29.4911C201.854 29.5001 203.565 30.1818 204.771 31.5361C205.978 32.8904 206.612 34.3526 206.675 35.9226ZM203.063 35.0817C203.106 34.7652 203.128 34.483 203.129 34.2352C203.134 33.0235 202.78 32.0857 202.066 31.4219C201.367 30.7443 200.501 30.4034 199.468 30.3992C196.962 30.3891 195.462 31.9389 194.967 35.0489L203.063 35.0817ZM224.184 32.0693L224.211 25.46C224.219 23.6562 224.196 22.5202 224.142 22.0518C224.103 21.5835 223.912 21.2247 223.569 20.9754C223.225 20.7262 222.613 20.5998 221.732 20.5962L221.298 20.5944L221.302 19.6443C222.968 19.6098 224.794 19.328 226.779 18.7991L227.213 18.8009L227.12 41.541C227.112 43.51 227.142 44.7081 227.209 45.1352C227.276 45.5623 227.488 45.8799 227.845 46.0879C228.216 46.2959 228.897 46.402 229.889 46.406L229.885 47.3561C227.888 47.3893 226.111 47.5611 224.554 47.8714C224.391 47.2236 224.313 46.2043 224.319 44.8136C223.296 45.8284 222.239 46.5884 221.149 47.0934C220.073 47.5985 218.957 47.8487 217.8 47.844C215.611 47.8351 213.721 46.9462 212.131 45.1772C210.555 43.4083 209.772 41.2709 209.782 38.7648C209.793 36.011 210.614 33.7905 212.246 32.1035C213.878 30.4027 215.816 29.5568 218.06 29.5659C219.203 29.5706 220.283 29.7815 221.3 30.1987C222.318 30.6159 223.279 31.2395 224.184 32.0693ZM224.18 33.2673C223.274 32.4787 222.361 31.8898 221.44 31.5005C220.533 31.0975 219.618 30.8941 218.695 30.8904C217.139 30.8841 215.836 31.4778 214.784 32.6715C213.747 33.8652 213.222 35.8183 213.211 38.5309C213.2 41.2848 213.722 43.3179 214.777 44.6303C215.846 45.9428 217.165 46.6022 218.735 46.6086C219.781 46.6128 220.753 46.3689 221.65 45.8768C222.547 45.3848 223.376 44.6446 224.137 43.6563L224.18 33.2673ZM252.76 19.297L262.116 19.335L262.112 20.2851C260.873 20.3627 259.942 20.6412 259.321 21.1206C258.713 21.5863 258.339 22.1149 258.199 22.7064C258.059 23.2979 257.985 24.4474 257.978 26.1548L257.941 35.4698C257.931 37.8519 257.827 39.6208 257.63 40.7767C257.446 41.9326 256.905 43.0664 256.005 44.1781C255.119 45.2898 253.87 46.1729 252.256 46.8273C250.642 47.4817 248.782 47.8046 246.675 47.796C244.183 47.7859 242.071 47.3574 240.34 46.5104C238.622 45.6497 237.394 44.55 236.656 43.2114C235.931 41.859 235.574 40.0537 235.583 37.7956L235.615 34.9247L235.651 26.2087C235.66 23.9781 235.597 22.5389 235.462 21.8912C235.34 21.2435 235.067 20.7949 234.641 20.5453C234.229 20.2958 233.314 20.1682 231.896 20.1624L231.255 20.1598L231.259 19.2097L244.044 19.2616L244.04 20.2117L243.482 20.2094C242.106 20.2039 241.203 20.3172 240.775 20.5496C240.348 20.7682 240.057 21.1869 239.903 21.806C239.763 22.425 239.688 23.8981 239.678 26.2251L239.642 35.0444C239.63 38.1012 239.759 40.2704 240.029 41.5521C240.313 42.8338 241.107 43.9592 242.411 44.9284C243.716 45.8838 245.455 46.3659 247.631 46.3747C249.338 46.3817 250.889 46.0713 252.282 45.4435C253.689 44.8021 254.732 44.0077 255.411 43.0603C256.103 42.0993 256.527 41.1165 256.682 40.1119C256.838 39.0936 256.92 37.4966 256.929 35.3211L256.968 25.7789C256.974 24.1954 256.889 23.0866 256.713 22.4525C256.536 21.8184 256.153 21.3143 255.562 20.9401C254.972 20.5659 254.036 20.3349 252.756 20.2471L252.76 19.297ZM268.229 29.7696L268.787 29.7719C269.018 30.5439 269.131 31.4738 269.126 32.5616C270.011 31.6289 270.957 30.9373 271.964 30.487C272.985 30.023 274.06 29.7933 275.189 29.7979C277.53 29.8074 279.475 30.6415 281.024 32.3001C282.574 33.945 283.343 36.1168 283.332 38.8156C283.321 41.4593 282.527 43.6661 280.95 45.436C279.387 47.2059 277.332 48.0857 274.785 48.0754C273.738 48.0711 272.734 47.8536 271.772 47.4229C270.823 47.0059 269.924 46.3826 269.074 45.553L269.048 51.9764C269.04 53.9317 269.069 55.1229 269.136 55.55C269.217 55.9772 269.436 56.2948 269.793 56.5028C270.151 56.7245 270.818 56.8374 271.796 56.8414L271.792 57.7914L262.952 57.7556L262.956 56.8055L263.575 56.808C264.553 56.812 265.187 56.6699 265.477 56.382C265.781 56.1078 265.955 55.7712 265.998 55.372C266.054 54.9867 266.086 53.8508 266.094 51.9644L266.156 36.5978C266.164 34.794 266.141 33.6579 266.088 33.1896C266.048 32.7212 265.857 32.3624 265.514 32.1132C265.17 31.864 264.558 31.7375 263.677 31.734L263.057 31.7315L263.061 30.7814C264.425 30.6492 266.148 30.312 268.229 29.7696ZM269.079 44.1898C269.819 45.1016 270.601 45.7933 271.425 46.2648C272.263 46.7226 273.144 46.9534 274.066 46.9571C275.622 46.9634 276.981 46.3011 278.143 44.9702C279.305 43.6393 279.892 41.5142 279.904 38.5951C279.914 36.0616 279.364 34.166 278.254 32.9085C277.144 31.6509 275.818 31.019 274.276 31.0128C273.326 31.0089 272.423 31.2462 271.567 31.7247C270.711 32.2032 269.896 32.9296 269.121 33.9041L269.079 44.1898Z" fill="#516A8E"/>
  <path d="M89.5541 38.4006L89.8039 38.4079L89.8114 38.1517L89.5551 38.1506L89.5541 38.4006ZM89.3141 46.6408L89.313 46.8908L89.5568 46.8918L89.5639 46.6481L89.3141 46.6408ZM65.5206 46.5442L65.2706 46.5432L65.2696 46.7932L65.5196 46.7942L65.5206 46.5442ZM65.5244 45.5941L65.5255 45.3441L65.2755 45.3431L65.2744 45.5931L65.5244 45.5941ZM68.8309 45.1531L68.696 44.9426L68.6931 44.9445L68.8309 45.1531ZM69.7248 43.7522L69.4804 43.6992L69.4796 43.7032L69.7248 43.7522ZM69.8162 21.2187L69.5705 21.2647L69.5715 21.2697L69.8162 21.2187ZM68.9955 19.8728L68.866 20.0867L68.8691 20.0885L68.9955 19.8728ZM65.6304 19.4874L65.3804 19.4863L65.3794 19.7363L65.6294 19.7374L65.6304 19.4874ZM65.6343 18.5373L65.6353 18.2873L65.3853 18.2863L65.3843 18.5363L65.6343 18.5373ZM79.0801 18.5919L79.3301 18.5929L79.3311 18.3429L79.0811 18.3419L79.0801 18.5919ZM79.0762 19.542L79.0752 19.792L79.3252 19.793L79.3262 19.543L79.0762 19.542ZM75.1299 19.8771L75.2437 20.0997L75.2492 20.0967L75.1299 19.8771ZM74.2573 21.1334L74.0146 21.0731L74.0135 21.0782L74.2573 21.1334ZM75.0063 45.2195L74.8768 45.4335L74.884 45.4375L75.0063 45.2195ZM84.1149 45.2152L84.0311 44.9796L84.0298 44.9801L84.1149 45.2152ZM86.4982 43.242L86.2981 43.0921L86.2968 43.0938L86.4982 43.242ZM88.5833 38.3967L88.5843 38.1467L88.3946 38.1459L88.3428 38.3284L88.5833 38.3967ZM89.3042 38.3934L89.0642 46.6335L89.5639 46.6481L89.8039 38.4079L89.3042 38.3934ZM89.3151 46.3908L65.5216 46.2942L65.5196 46.7942L89.313 46.8908L89.3151 46.3908ZM65.7706 46.5452L65.7744 45.5951L65.2744 45.5931L65.2706 46.5432L65.7706 46.5452ZM65.5234 45.8441L66.3496 45.8474L66.3516 45.3474L65.5255 45.3441L65.5234 45.8441ZM66.3496 45.8474C67.5504 45.8523 68.4454 45.7075 68.9688 45.3617L68.6931 44.9445C68.3052 45.2008 67.5467 45.3523 66.3516 45.3474L66.3496 45.8474ZM68.9659 45.3636C69.5015 45.0201 69.8324 44.4893 69.9699 43.8012L69.4796 43.7032C69.3641 44.281 69.0991 44.6841 68.696 44.9427L68.9659 45.3636ZM69.9691 43.8053C70.1161 43.1277 70.19 41.6053 70.1995 39.2722L69.6995 39.2701C69.69 41.6186 69.614 43.0836 69.4804 43.6992L69.9691 43.8053ZM70.1995 39.2722L70.2553 25.5372L69.7553 25.5352L69.6995 39.2701L70.1995 39.2722ZM70.2553 25.5372C70.2643 23.3134 70.2025 21.8461 70.061 21.1676L69.5715 21.2697C69.7002 21.8867 69.7643 23.2978 69.7553 25.5352L70.2553 25.5372ZM70.062 21.1726C69.9321 20.479 69.6294 19.9545 69.1219 19.6571L68.8691 20.0885C69.2134 20.2902 69.4578 20.663 69.5705 21.2647L70.062 21.1726ZM69.125 19.659C68.8741 19.507 68.5006 19.4073 68.0346 19.3423C67.5618 19.2764 66.9662 19.2428 66.2511 19.2399L66.249 19.7399C66.9522 19.7427 67.5233 19.7758 67.9656 19.8375C68.4147 19.9002 68.7049 19.9891 68.866 20.0867L69.125 19.659ZM66.2511 19.2399L65.6314 19.2374L65.6294 19.7374L66.249 19.7399L66.2511 19.2399ZM65.8804 19.4884L65.8843 18.5383L65.3843 18.5363L65.3804 19.4863L65.8804 19.4884ZM65.6333 18.7873L79.0791 18.8419L79.0811 18.3419L65.6353 18.2873L65.6333 18.7873ZM78.8301 18.5909L78.8262 19.5409L79.3262 19.543L79.3301 18.5929L78.8301 18.5909ZM79.0772 19.292L77.838 19.2869L77.836 19.7869L79.0752 19.792L79.0772 19.292ZM77.838 19.2869C77.1436 19.2841 76.5621 19.3112 76.0963 19.3697C75.6363 19.4275 75.2662 19.5185 75.0106 19.6574L75.2492 20.0967C75.4213 20.0033 75.7163 19.9214 76.1587 19.8658C76.5952 19.811 77.1534 19.7841 77.836 19.7869L77.838 19.2869ZM75.0161 19.6544C74.5046 19.9158 74.1801 20.4082 74.0147 21.0731L74.4999 21.1938C74.6425 20.6206 74.8997 20.2754 75.2436 20.0997L75.0161 19.6544ZM74.0135 21.0782C73.8659 21.7297 73.7922 23.2333 73.7828 25.5515L74.2828 25.5536C74.2923 23.2178 74.3682 21.7753 74.5011 21.1887L74.0135 21.0782ZM73.7828 25.5515L73.7233 40.2159L74.2233 40.218L74.2828 25.5536L73.7828 25.5515ZM73.7233 40.2159C73.7191 41.2297 73.7296 42.0565 73.7547 42.6951C73.7797 43.3284 73.8196 43.7918 73.8785 44.0698L74.3676 43.9661C74.3185 43.7342 74.2793 43.3091 74.2544 42.6754C74.2296 42.047 74.2192 41.2282 74.2233 40.218L73.7233 40.2159ZM73.8785 44.0698C74.0021 44.653 74.3421 45.1096 74.8768 45.4333L75.1358 45.0056C74.709 44.7472 74.4602 44.4028 74.3676 43.9661L73.8785 44.0698ZM74.884 45.4375C75.1733 45.5998 75.5982 45.7096 76.1334 45.7818C76.6746 45.8547 77.3523 45.8921 78.1637 45.8954L78.1657 45.3954C77.3661 45.3922 76.712 45.3553 76.2003 45.2863C75.6827 45.2165 75.3339 45.1166 75.1286 45.0014L74.884 45.4375ZM78.1637 45.8954L80.2911 45.904L80.2931 45.404L78.1657 45.3954L78.1637 45.8954ZM80.2911 45.904C82.0191 45.9111 83.3297 45.7653 84.2 45.4502L84.0298 44.9801C83.2453 45.2641 82.0075 45.411 80.2931 45.404L80.2911 45.904ZM84.1988 45.4507C85.1027 45.1288 85.934 44.4304 86.6995 43.3902L86.2968 43.0938C85.567 44.0855 84.8095 44.7025 84.0311 44.9796L84.1988 45.4507ZM86.6982 43.392C87.4874 42.3392 88.1925 40.6888 88.8238 38.465L88.3428 38.3284C87.7169 40.5333 87.0319 42.1131 86.2982 43.0921L86.6982 43.392ZM88.5823 38.6467L89.553 38.6506L89.5551 38.1506L88.5843 38.1467L88.5823 38.6467ZM108.535 43.6207L108.536 43.3707L108.323 43.3698L108.288 43.5794L108.535 43.6207ZM109.299 43.6238L109.549 43.6379L109.564 43.3748L109.3 43.3738L109.299 43.6238ZM103.587 46.3889L103.417 46.5719L103.419 46.574L103.587 46.3889ZM102.543 44.1746L102.79 44.134L102.725 43.7409L102.399 43.9702L102.543 44.1746ZM98.7542 46.3693L98.6557 46.1395L98.6546 46.14L98.7542 46.3693ZM93.6174 39.7597L93.4667 39.5602L93.4657 39.561L93.6174 39.7597ZM99.3719 36.6849L99.2787 36.4529L99.2775 36.4534L99.3719 36.6849ZM102.579 35.3967L102.672 35.6287L102.828 35.5659L102.829 35.3977L102.579 35.3967ZM95.2392 32.0415L94.9929 31.9986L94.9923 32.0018L95.2392 32.0415ZM93.9239 30.4251L94.0795 30.6208L94.081 30.6196L93.9239 30.4251ZM105.092 31.813L104.862 31.9111L104.864 31.9149L105.092 31.813ZM102.575 36.3674L102.825 36.3684L102.826 35.9979L102.482 36.1352L102.575 36.3674ZM100.32 37.2671L100.227 37.0348L100.226 37.0351L100.32 37.2671ZM95.6417 44.8076L95.4502 44.9683L95.4523 44.9707L95.6417 44.8076ZM99.6687 44.9685L99.5578 44.7444L99.6687 44.9685ZM102.547 43.0593L102.703 43.2547L102.797 43.18L102.797 43.0603L102.547 43.0593ZM108.534 43.8707L109.298 43.8738L109.3 43.3738L108.536 43.3707L108.534 43.8707ZM109.049 43.6096C108.985 44.7516 108.673 45.5653 108.15 46.0928C107.631 46.6174 106.866 46.8958 105.816 46.8915L105.814 47.3915C106.953 47.3961 107.864 47.0926 108.506 46.4447C109.144 45.7996 109.48 44.85 109.549 43.6379L109.049 43.6096ZM105.816 46.8915C104.924 46.8879 104.247 46.6501 103.755 46.2038L103.419 46.574C104.025 47.1236 104.833 47.3875 105.814 47.3915L105.816 46.8915ZM103.758 46.2059C103.275 45.7572 102.945 45.077 102.79 44.134L102.296 44.2153C102.463 45.2289 102.829 46.0249 103.417 46.5719L103.758 46.2059ZM102.399 43.9702C101.028 44.9355 99.7801 45.6572 98.6557 46.1395L98.8528 46.599C100.018 46.0992 101.296 45.3578 102.687 44.3791L102.399 43.9702ZM98.6546 46.14C97.544 46.6222 96.566 46.854 95.7161 46.8505L95.714 47.3505C96.6541 47.3543 97.7022 47.0986 98.8538 46.5986L98.6546 46.14ZM95.7161 46.8505C94.6251 46.8461 93.6982 46.5282 92.9225 45.9025L92.6086 46.2917C93.4799 46.9946 94.5193 47.3457 95.714 47.3505L95.7161 46.8505ZM92.9225 45.9025C92.16 45.2875 91.7828 44.4844 91.7869 43.47L91.2869 43.468C91.2822 44.6292 91.7241 45.5782 92.6086 46.2917L92.9225 45.9025ZM91.7869 43.47C91.7923 42.1469 92.4341 40.9777 93.7692 39.9584L93.4657 39.561C92.0383 40.6509 91.2931 41.9546 91.2869 43.468L91.7869 43.47ZM93.7682 39.9591C95.1395 38.9224 97.036 37.9072 99.4662 36.9164L99.2775 36.4534C96.8252 37.4531 94.8854 38.4877 93.4667 39.5602L93.7682 39.9591ZM99.465 36.9169L102.672 35.6287L102.485 35.1647L99.2787 36.4529L99.465 36.9169ZM102.829 35.3977L102.832 34.5715L102.332 34.5695L102.329 35.3957L102.829 35.3977ZM102.832 34.5715C102.837 33.3982 102.765 32.5207 102.605 31.9606L102.125 32.0977C102.264 32.5852 102.337 33.4021 102.332 34.5695L102.832 34.5715ZM102.605 31.9606C102.434 31.3602 101.993 30.8469 101.331 30.411L101.056 30.8287C101.657 31.2242 101.997 31.6504 102.125 32.0977L102.605 31.9606ZM101.331 30.411C100.646 29.9606 99.7618 29.7444 98.6978 29.7401L98.6958 30.2401C99.6972 30.2442 100.477 30.4478 101.056 30.8287L101.331 30.411ZM98.6978 29.7401C97.6424 29.7358 96.7866 29.9074 96.1558 30.2817C95.5137 30.6626 95.1246 31.2421 94.9929 31.9986L95.4855 32.0844C95.5934 31.4649 95.9004 31.0146 96.4109 30.7117C96.9326 30.4021 97.6858 30.236 98.6958 30.2401L98.6978 29.7401ZM94.9923 32.0018C94.8828 32.6821 94.6917 33.158 94.4415 33.4594C94.2002 33.75 93.8927 33.8928 93.4967 33.8912L93.4947 34.3912C94.035 34.3934 94.4862 34.1882 94.8261 33.7788C95.157 33.3803 95.3695 32.8045 95.486 32.0813L94.9923 32.0018ZM93.4967 33.8912C93.1122 33.8896 92.8706 33.797 92.725 33.6574C92.5817 33.52 92.4892 33.2966 92.4906 32.9392L91.9906 32.9371C91.9889 33.3783 92.1039 33.7547 92.379 34.0183C92.6516 34.2797 93.0392 34.3893 93.4947 34.3912L93.4967 33.8912ZM92.4906 32.9392C92.4933 32.2739 92.9741 31.5005 94.0795 30.6208L93.7682 30.2295C92.6357 31.1307 91.9943 32.0327 91.9906 32.9371L92.4906 32.9392ZM94.081 30.6196C95.1345 29.7682 96.8022 29.3236 99.1332 29.3331L99.1352 28.8331C96.7571 28.8234 94.9512 29.2735 93.7667 30.2307L94.081 30.6196ZM99.1332 29.3331C100.861 29.3401 102.167 29.6185 103.075 30.1423L103.325 29.7092C102.31 29.1237 100.905 28.8403 99.1352 28.8331L99.1332 29.3331ZM103.075 30.1423C104.01 30.6817 104.591 31.2755 104.862 31.9111L105.322 31.7149C104.993 30.9436 104.313 30.2792 103.325 29.7092L103.075 30.1423ZM104.864 31.9149C105.156 32.5688 105.31 33.5999 105.304 35.036L105.804 35.038C105.81 33.5825 105.657 32.4643 105.321 31.7112L104.864 31.9149ZM105.304 35.036L105.276 41.8724L105.776 41.8745L105.804 35.038L105.304 35.036ZM105.276 41.8724C105.273 42.6746 105.291 43.3377 105.331 43.8601C105.371 44.3762 105.433 44.7752 105.527 45.0364L105.997 44.8674C105.928 44.6736 105.869 44.332 105.83 43.822C105.791 43.3181 105.773 42.6696 105.776 41.8745L105.276 41.8724ZM105.527 45.0364C105.624 45.3083 105.786 45.5271 106.017 45.6752C106.246 45.8218 106.523 45.8866 106.832 45.8879L106.834 45.3879C106.592 45.3869 106.415 45.3363 106.287 45.2542C106.161 45.1737 106.063 45.0507 105.997 44.8674L105.527 45.0364ZM106.832 45.8879C107.358 45.89 107.798 45.6924 108.131 45.2975C108.456 44.9131 108.665 44.358 108.781 43.6619L108.288 43.5794C108.179 44.2318 107.992 44.6872 107.749 44.9751C107.515 45.2526 107.217 45.3894 106.834 45.3879L106.832 45.8879ZM102.482 36.1352L100.227 37.0348L100.412 37.4993L102.667 36.5996L102.482 36.1352ZM100.226 37.0351C96.6501 38.4736 94.7283 40.3433 94.7187 42.6971L95.2187 42.6991C95.2269 40.6742 96.8724 38.9232 100.413 37.499L100.226 37.0351ZM94.7187 42.6971C94.715 43.6094 94.9518 44.3743 95.4502 44.9683L95.8332 44.6469C95.4273 44.1632 95.2154 43.5217 95.2187 42.6991L94.7187 42.6971ZM95.4523 44.9707C95.9546 45.5539 96.616 45.8464 97.4138 45.8496L97.4158 45.3496C96.7541 45.3469 96.2334 45.1114 95.8312 44.6444L95.4523 44.9707ZM97.4138 45.8496C98.1138 45.8525 98.9046 45.6256 99.7796 45.1926L99.5578 44.7444C98.7219 45.1581 98.0102 45.352 97.4158 45.3496L97.4138 45.8496ZM99.7796 45.1926C100.656 44.7587 101.631 44.1109 102.703 43.2547L102.391 42.864C101.336 43.7065 100.392 44.3315 99.5578 44.7444L99.7796 45.1926ZM102.797 43.0603L102.825 36.3684L102.325 36.3664L102.297 43.0583L102.797 43.0603ZM129.607 47.4653L129.606 47.7153L129.777 47.716L129.84 47.5576L129.607 47.4653ZM128.678 47.4615L128.444 47.5484L128.504 47.7108L128.677 47.7115L128.678 47.4615ZM123.693 34.0159L123.927 33.929L123.698 33.3109L123.46 33.9256L123.693 34.0159ZM118.496 47.4202L118.495 47.6702L118.666 47.6709L118.729 47.5106L118.496 47.4202ZM117.587 47.4165L117.353 47.5053L117.414 47.6658L117.586 47.6665L117.587 47.4165ZM112.478 33.9704L112.711 33.8816L112.711 33.881L112.478 33.9704ZM109.434 30.7566L109.184 30.7556L109.183 31.0056L109.433 31.0066L109.434 30.7566ZM109.438 29.8065L109.439 29.5565L109.189 29.5555L109.188 29.8055L109.438 29.8065ZM117.162 29.8379L117.412 29.8389L117.413 29.5889L117.163 29.5879L117.162 29.8379ZM117.159 30.788L117.158 31.038L117.408 31.039L117.409 30.789L117.159 30.788ZM115.381 31.0286L115.488 31.2547L115.496 31.2507L115.381 31.0286ZM115.699 34.252L115.933 34.1645L115.931 34.1597L115.699 34.252ZM119.09 43.333L118.856 43.4205L119.084 44.0311L119.323 43.4246L119.09 43.333ZM124.391 29.8672L124.392 29.6172L124.221 29.6165L124.159 29.7757L124.391 29.8672ZM125.197 29.8705L125.431 29.7833L125.371 29.6212L125.198 29.6205L125.197 29.8705ZM130.223 43.3782L129.989 43.4654L130.217 44.0789L130.456 43.4694L130.223 43.3782ZM133.98 33.7892L133.747 33.697L133.747 33.698L133.98 33.7892ZM132.505 30.8503L132.255 30.8493L132.254 31.0896L132.494 31.1L132.505 30.8503ZM132.508 29.9002L132.509 29.6502L132.259 29.6492L132.258 29.8992L132.508 29.9002ZM138.002 29.9225L138.252 29.9235L138.253 29.6735L138.003 29.6725L138.002 29.9225ZM137.999 30.8726L138.003 31.1226L138.248 31.1184L138.249 30.8736L137.999 30.8726ZM136.427 31.2586L136.56 31.4707L136.562 31.4695L136.427 31.2586ZM135.388 32.8655L135.621 32.9551L135.622 32.9546L135.388 32.8655ZM134.929 34.0616L135.161 34.1538L135.162 34.1512L134.929 34.0616ZM129.608 47.2153L128.679 47.2115L128.677 47.7115L129.606 47.7153L129.608 47.2153ZM128.912 47.3746L123.927 33.929L123.459 34.1028L128.444 47.5484L128.912 47.3746ZM123.46 33.9256L118.262 47.3298L118.729 47.5106L123.926 34.1063L123.46 33.9256ZM118.497 47.1702L117.588 47.1665L117.586 47.6665L118.495 47.6702L118.497 47.1702ZM117.82 47.3277L112.711 33.8816L112.244 34.0592L117.353 47.5053L117.82 47.3277ZM112.711 33.881C112.417 33.1127 112.159 32.4938 111.936 32.0267C111.718 31.5685 111.523 31.23 111.349 31.0462L110.986 31.3899C111.099 31.5102 111.266 31.7824 111.485 32.2417C111.699 32.692 111.952 33.2973 112.244 34.0598L112.711 33.881ZM111.349 31.0462C111.162 30.849 110.898 30.717 110.582 30.633C110.266 30.5488 109.881 30.5084 109.435 30.5066L109.433 31.0066C109.854 31.0083 110.192 31.0467 110.454 31.1162C110.716 31.186 110.884 31.283 110.986 31.3899L111.349 31.0462ZM109.684 30.7576L109.688 29.8075L109.188 29.8055L109.184 30.7556L109.684 30.7576ZM109.437 30.0565L117.161 30.0879L117.163 29.5879L109.439 29.5565L109.437 30.0565ZM116.912 29.8369L116.909 30.787L117.409 30.789L117.412 29.8389L116.912 29.8369ZM117.16 30.538C116.719 30.5362 116.342 30.5556 116.03 30.5978C115.722 30.6395 115.462 30.7055 115.267 30.8065L115.496 31.2507C115.618 31.1878 115.813 31.1317 116.097 31.0932C116.378 31.0552 116.731 31.0362 117.158 31.038L117.16 30.538ZM115.274 30.8026C115.077 30.8962 114.917 31.0324 114.809 31.2143C114.702 31.3947 114.654 31.6042 114.653 31.8312L115.153 31.8332C115.154 31.6746 115.187 31.5574 115.239 31.47C115.29 31.384 115.369 31.3112 115.488 31.2546L115.274 30.8026ZM114.653 31.8312C114.653 31.9319 114.675 32.0584 114.709 32.1976C114.744 32.3416 114.796 32.5168 114.864 32.7218C114.998 33.132 115.2 33.6734 115.466 34.3443L115.931 34.1597C115.666 33.4927 115.469 32.9619 115.339 32.5656C115.273 32.3673 115.226 32.2056 115.195 32.079C115.163 31.9478 115.153 31.8702 115.153 31.8332L114.653 31.8312ZM115.465 34.3395L118.856 43.4205L119.325 43.2456L115.933 34.1645L115.465 34.3395ZM119.323 43.4246L124.624 29.9588L124.159 29.7757L118.858 43.2415L119.323 43.4246ZM124.39 30.1172L125.196 30.1205L125.198 29.6205L124.392 29.6172L124.39 30.1172ZM124.963 29.9577L129.989 43.4654L130.457 43.291L125.431 29.7833L124.963 29.9577ZM130.456 43.4694L134.212 33.8804L133.747 33.698L129.99 43.287L130.456 43.4694ZM134.212 33.8814C134.415 33.3708 134.568 32.9584 134.671 32.6457C134.723 32.4895 134.763 32.3553 134.79 32.2445C134.817 32.1385 134.836 32.0374 134.836 31.9544L134.336 31.9524C134.336 31.9727 134.33 32.0255 134.305 32.1242C134.282 32.218 134.246 32.3391 134.197 32.4888C134.098 32.7881 133.948 33.1903 133.747 33.697L134.212 33.8814ZM134.836 31.9544C134.837 31.7404 134.782 31.5416 134.666 31.3668C134.551 31.1939 134.386 31.0573 134.185 30.9507C133.789 30.7408 133.223 30.6314 132.515 30.6005L132.494 31.1C133.176 31.1299 133.653 31.2347 133.951 31.3925C134.097 31.4698 134.191 31.5554 134.249 31.6431C134.306 31.7289 134.337 31.8291 134.336 31.9524L134.836 31.9544ZM132.755 30.8513L132.758 29.9012L132.258 29.8992L132.255 30.8493L132.755 30.8513ZM132.507 30.1502L138.001 30.1725L138.003 29.6725L132.509 29.6502L132.507 30.1502ZM137.752 29.9215L137.749 30.8716L138.249 30.8736L138.252 29.9235L137.752 29.9215ZM137.994 30.6226C137.306 30.6342 136.732 30.7681 136.293 31.0478L136.562 31.4695C136.896 31.2567 137.369 31.1332 138.003 31.1226L137.994 30.6226ZM136.295 31.0465C135.848 31.3256 135.477 31.9308 135.154 32.7763L135.622 32.9546C135.939 32.1229 136.261 31.6568 136.56 31.4707L136.295 31.0465ZM135.155 32.7759L134.695 33.9719L135.162 34.1512L135.621 32.9551L135.155 32.7759ZM134.696 33.9693L129.375 47.3731L129.84 47.5576L135.161 34.1538L134.696 33.9693ZM148.955 43.6815L148.729 43.7869L148.966 44.2982L149.186 43.7788L148.955 43.6815ZM152.918 34.2998L153.148 34.3971L153.149 34.3956L152.918 34.2998ZM151.486 30.9273L151.236 30.9263L151.235 31.1719L151.48 31.1773L151.486 30.9273ZM151.489 29.9773L151.49 29.7273L151.24 29.7262L151.239 29.9762L151.489 29.9773ZM157.438 30.0014L157.688 30.0024L157.689 29.7524L157.439 29.7514L157.438 30.0014ZM157.434 30.9515L157.444 31.2013L157.683 31.1916L157.684 30.9525L157.434 30.9515ZM155.407 31.6868L155.586 31.8615L155.588 31.8587L155.407 31.6868ZM153.805 34.6339L153.574 34.5372L153.574 34.5373L153.805 34.6339ZM146.192 52.7995L145.961 52.7029L145.961 52.7032L146.192 52.7995ZM144.277 56.3236L144.091 56.1568L144.089 56.1588L144.277 56.3236ZM143.276 53.6758L143.176 53.4468L143.174 53.4476L143.276 53.6758ZM144.953 52.7325L144.786 52.5464L144.781 52.5506L144.953 52.7325ZM145.806 51.3108L145.574 51.217L145.806 51.3108ZM147.433 47.2898L147.665 47.3836L147.705 47.2833L147.66 47.185L147.433 47.2898ZM141.127 33.6323L141.354 33.5275L141.353 33.5267L141.127 33.6323ZM137.833 30.8719L137.583 30.8709L137.582 31.1209L137.832 31.1219L137.833 30.8719ZM137.837 29.9218L137.838 29.6718L137.588 29.6708L137.587 29.9208L137.837 29.9218ZM145.603 29.9534L145.853 29.9544L145.854 29.7044L145.604 29.7034L145.603 29.9534ZM145.599 30.9034L145.606 31.1534L145.848 31.147L145.849 30.9045L145.599 30.9034ZM144.348 33.7693L144.575 33.664L144.575 33.6639L144.348 33.7693ZM149.186 43.7788L153.148 34.3971L152.687 34.2026L148.725 43.5842L149.186 43.7788ZM153.149 34.3956C153.434 33.7074 153.649 33.1698 153.794 32.7841C153.866 32.5916 153.921 32.4342 153.959 32.3135C153.977 32.2534 153.993 32.1996 154.004 32.1535C154.013 32.1122 154.024 32.0606 154.024 32.0117L153.524 32.0096C153.524 31.9986 153.525 32.004 153.517 32.0387C153.51 32.0688 153.498 32.1102 153.481 32.1643C153.448 32.2723 153.396 32.42 153.325 32.609C153.184 32.9864 152.971 33.5176 152.687 34.204L153.149 34.3956ZM154.024 32.0117C154.025 31.7901 153.963 31.586 153.835 31.4091C153.709 31.2351 153.528 31.1005 153.311 30.9975C152.882 30.7943 152.266 30.6945 151.491 30.6774L151.48 31.1773C152.233 31.1939 152.763 31.2916 153.097 31.4494C153.261 31.527 153.366 31.6139 153.43 31.7023C153.492 31.7878 153.524 31.887 153.524 32.0096L154.024 32.0117ZM151.736 30.9284L151.739 29.9783L151.239 29.9762L151.236 30.9263L151.736 30.9284ZM151.488 30.2273L157.437 30.2514L157.439 29.7514L151.49 29.7273L151.488 30.2273ZM157.188 30.0004L157.184 30.9505L157.684 30.9525L157.688 30.0024L157.188 30.0004ZM157.424 30.7017C156.467 30.7406 155.716 30.9964 155.225 31.5149L155.588 31.8587C155.955 31.4719 156.556 31.2375 157.444 31.2013L157.424 30.7017ZM155.228 31.5121C154.989 31.7563 154.736 32.1356 154.465 32.6333C154.193 33.1345 153.896 33.7699 153.574 34.5372L154.035 34.7305C154.353 33.9721 154.643 33.3534 154.904 32.8722C155.168 32.3875 155.396 32.0562 155.586 31.8615L155.228 31.5121ZM153.574 34.5373L145.961 52.7029L146.422 52.8961L154.035 34.7305L153.574 34.5373ZM145.961 52.7032C145.239 54.4337 144.614 55.5735 144.091 56.1568L144.464 56.4905C145.047 55.839 145.699 54.6293 146.423 52.8958L145.961 52.7032ZM144.089 56.1588C143.57 56.7514 143.027 57.0187 142.457 57.0163L142.455 57.5163C143.207 57.5194 143.878 57.1582 144.465 56.4884L144.089 56.1588ZM142.457 57.0163C142.042 57.0147 141.778 56.919 141.619 56.7732C141.464 56.6316 141.367 56.4044 141.368 56.0433L140.868 56.0413C140.867 56.4926 140.99 56.8756 141.282 57.142C141.568 57.4043 141.975 57.5144 142.455 57.5163L142.457 57.0163ZM141.368 56.0433C141.372 55.2612 141.967 54.5347 143.378 53.904L143.174 53.4476C141.716 54.0996 140.873 54.9508 140.868 56.0413L141.368 56.0433ZM143.376 53.9048C144.217 53.5367 144.813 53.2078 145.124 52.9145L144.781 52.5506C144.54 52.7782 144.018 53.0782 143.176 53.4468L143.376 53.9048ZM145.12 52.9186C145.454 52.6189 145.755 52.101 146.037 51.4046L145.574 51.217C145.299 51.8954 145.032 52.3253 144.786 52.5464L145.12 52.9186ZM146.037 51.4046L147.665 47.3836L147.201 47.196L145.574 51.217L146.037 51.4046ZM147.66 47.185L141.354 33.5275L140.9 33.7371L147.206 47.3946L147.66 47.185ZM141.353 33.5267C141.071 32.9217 140.811 32.4227 140.571 32.0321C140.334 31.6454 140.109 31.3497 139.894 31.165L139.569 31.5443C139.724 31.6779 139.917 31.9208 140.145 32.2933C140.371 32.662 140.623 33.1427 140.9 33.738L141.353 33.5267ZM139.894 31.165C139.454 30.7869 138.745 30.6256 137.834 30.6219L137.832 31.1219C138.712 31.1255 139.268 31.2861 139.569 31.5443L139.894 31.165ZM138.083 30.8729L138.087 29.9228L137.587 29.9208L137.583 30.8709L138.083 30.8729ZM137.836 30.1718L145.602 30.2034L145.604 29.7034L137.838 29.6718L137.836 30.1718ZM145.353 29.9523L145.349 30.9024L145.849 30.9045L145.853 29.9544L145.353 29.9523ZM145.593 30.6535C144.902 30.6717 144.354 30.7514 143.97 30.9085C143.58 31.068 143.303 31.3368 143.301 31.7409L143.801 31.743C143.801 31.6239 143.866 31.4913 144.159 31.3713C144.458 31.2489 144.933 31.171 145.606 31.1534L145.593 30.6535ZM143.301 31.7409C143.301 31.8327 143.327 31.9446 143.361 32.0567C143.397 32.1763 143.449 32.323 143.517 32.4952C143.653 32.84 143.855 33.3004 144.122 33.8747L144.575 33.6639C144.31 33.0932 144.113 32.6432 143.982 32.3122C143.917 32.1465 143.87 32.014 143.84 31.913C143.825 31.8625 143.814 31.8224 143.808 31.7916C143.805 31.7764 143.803 31.7646 143.802 31.7558C143.801 31.7468 143.801 31.7429 143.801 31.743L143.301 31.7409ZM144.122 33.8747L148.729 43.7869L149.182 43.5761L144.575 33.664L144.122 33.8747ZM173.132 35.7864L173.131 36.0364L173.393 36.0375L173.382 35.7765L173.132 35.7864ZM161.339 35.7385L161.34 35.4885L161.106 35.4876L161.09 35.7206L161.339 35.7385ZM162.605 44.2739L162.392 44.404L162.393 44.4063L162.605 44.2739ZM172.111 43.1765L172.112 42.9265L171.953 42.9259L171.885 43.07L172.111 43.1765ZM173.102 43.1805L173.341 43.2563L173.444 42.9319L173.103 42.9305L173.102 43.1805ZM170.466 46.4745L170.594 46.6894L170.595 46.6884L170.466 46.4745ZM162.121 46.5439L161.995 46.7601L161.998 46.7616L162.121 46.5439ZM160.197 31.9954L160.383 32.1625L160.384 32.1617L160.197 31.9954ZM169.521 34.9456L169.52 35.1956L169.74 35.1964L169.769 34.9789L169.521 34.9456ZM168.524 31.2857L168.35 31.4653L168.354 31.4687L168.524 31.2857ZM161.425 34.9127L161.178 34.8734L161.132 35.1615L161.424 35.1627L161.425 34.9127ZM173.133 35.5364L161.34 35.4885L161.338 35.9885L173.131 36.0364L173.133 35.5364ZM161.09 35.7206C161.031 36.5339 161.001 37.1466 160.999 37.5547L161.499 37.5567C161.5 37.1663 161.53 36.5675 161.588 35.7564L161.09 35.7206ZM160.999 37.5547C160.987 40.5469 161.44 42.8413 162.392 44.404L162.819 44.1439C161.938 42.6974 161.487 40.5129 161.499 37.5567L160.999 37.5547ZM162.393 44.4063C163.372 45.9743 164.842 46.7637 166.767 46.7715L166.77 46.2715C165.005 46.2643 163.7 45.5553 162.818 44.1416L162.393 44.4063ZM166.767 46.7715C168.059 46.7767 169.179 46.4918 170.116 45.9048C171.054 45.3176 171.793 44.4386 172.337 43.2831L171.885 43.07C171.374 44.1546 170.694 44.9532 169.851 45.481C169.008 46.0089 167.984 46.2764 166.77 46.2715L166.767 46.7715ZM172.11 43.4265L173.101 43.4305L173.103 42.9305L172.112 42.9265L172.11 43.4265ZM172.864 43.1047C172.437 44.4472 171.598 45.4973 170.336 46.2606L170.595 46.6884C171.956 45.8652 172.875 44.7193 173.341 43.2563L172.864 43.1047ZM170.338 46.2596C169.066 47.0158 167.684 47.3905 166.187 47.3845L166.185 47.8845C167.772 47.8909 169.243 47.4924 170.594 46.6894L170.338 46.2596ZM166.187 47.3845C164.798 47.3788 163.485 47.027 162.244 46.3262L161.998 46.7616C163.312 47.5033 164.709 47.8785 166.185 47.8845L166.187 47.3845ZM162.247 46.3278C161.021 45.6151 160.015 44.6156 159.228 43.3238L158.801 43.5839C159.629 44.9423 160.693 46.0029 161.996 46.7601L162.247 46.3278ZM159.228 43.3238C158.45 42.0458 158.058 40.4877 158.066 38.6375L157.566 38.6355C157.558 40.5581 157.966 42.2115 158.801 43.5839L159.228 43.3238ZM158.066 38.6375C158.076 36.0189 158.853 33.8669 160.383 32.1625L160.011 31.8284C158.388 33.6362 157.577 35.9115 157.566 38.6355L158.066 38.6375ZM160.384 32.1617C161.914 30.445 163.811 29.5957 166.094 29.605L166.096 29.105C163.669 29.0951 161.635 30.0062 160.011 31.8291L160.384 32.1617ZM166.094 29.605C168.257 29.6137 169.894 30.2764 171.043 31.5662L171.416 31.2337C170.152 29.8148 168.366 29.1142 166.096 29.105L166.094 29.605ZM171.043 31.5662C172.217 32.8843 172.823 34.2929 172.883 35.7963L173.382 35.7765C173.317 34.1399 172.654 32.6242 171.416 31.2337L171.043 31.5662ZM169.769 34.9789C169.813 34.6545 169.836 34.3612 169.837 34.1L169.337 34.098C169.336 34.3325 169.315 34.6035 169.273 34.9122L169.769 34.9789ZM169.837 34.1C169.842 32.8367 169.471 31.8252 168.694 31.1027L168.354 31.4687C169.004 32.0739 169.341 32.9378 169.337 34.098L169.837 34.1ZM168.698 31.1061C167.949 30.3807 167.02 30.0175 165.927 30.0131L165.925 30.5131C166.897 30.517 167.7 30.8355 168.35 31.4653L168.698 31.1061ZM165.927 30.0131C164.618 30.0078 163.547 30.4121 162.741 31.244C161.943 32.0692 161.43 33.29 161.178 34.8734L161.672 34.952C161.914 33.4255 162.399 32.3164 163.101 31.5917C163.796 30.8737 164.728 30.5082 165.925 30.5131L165.927 30.0131ZM161.424 35.1627L169.52 35.1956L169.522 34.6956L161.426 34.6627L161.424 35.1627ZM181.795 33.7355L181.545 33.7402L181.569 35.0125L182.028 33.8256L181.795 33.7355ZM184.079 30.6672L183.926 30.4694L183.925 30.4704L184.079 30.6672ZM189.688 33.0653L189.507 32.8921L189.503 32.8968L189.688 33.0653ZM187.152 31.9603L187.388 31.8784L187.387 31.8766L187.152 31.9603ZM183.908 32.133L184.081 32.3135L184.083 32.312L183.908 32.133ZM181.978 44.6211L181.729 44.6421L181.729 44.6493L181.978 44.6211ZM182.572 45.6975L182.426 45.8998L182.572 45.6975ZM184.987 46.0791L185.237 46.0801L185.239 45.8301L184.989 45.8291L184.987 46.0791ZM184.984 47.0292L184.983 47.2792L185.233 47.2802L185.234 47.0302L184.984 47.0292ZM175.999 46.9927L175.749 46.9917L175.748 47.2417L175.998 47.2427L175.999 46.9927ZM176.003 46.0426L176.004 45.7926L175.754 45.7916L175.753 46.0416L176.003 46.0426ZM178.194 45.7211L178.328 45.9322L178.33 45.9308L178.194 45.7211ZM178.906 33.0215L178.657 33.0425L178.658 33.0506L178.906 33.0215ZM178.332 31.9451L178.18 32.1436L178.185 32.1474L178.332 31.9451ZM176.062 31.5435L175.812 31.5425L175.811 31.7925L176.061 31.7935L176.062 31.5435ZM176.066 30.614L176.038 30.3656L175.817 30.3906L175.816 30.613L176.066 30.614ZM181.151 29.4161L181.386 29.3309L181.305 29.1064L181.077 29.1774L181.151 29.4161ZM182.028 33.8256C182.485 32.6448 183.218 31.6587 184.233 30.8641L183.925 30.4704C182.84 31.3196 182.051 32.379 181.562 33.6453L182.028 33.8256ZM184.232 30.8651C185.267 30.0658 186.248 29.6868 187.181 29.6906L187.183 29.1906C186.106 29.1862 185.019 29.625 183.926 30.4694L184.232 30.8651ZM187.181 29.6906C188.034 29.694 188.678 29.9592 189.143 30.4653L189.511 30.1269C188.934 29.4997 188.148 29.1945 187.183 29.1906L187.181 29.6906ZM189.143 30.4653C189.634 30.9999 189.857 31.5213 189.855 32.0332L190.355 32.0353C190.358 31.3631 190.061 30.7256 189.511 30.1269L189.143 30.4653ZM189.855 32.0332C189.853 32.3683 189.739 32.6504 189.507 32.8921L189.868 33.2384C190.189 32.9041 190.353 32.4988 190.355 32.0353L189.855 32.0332ZM189.503 32.8968C189.287 33.1334 189.03 33.2463 188.716 33.2451L188.714 33.7451C189.171 33.7469 189.562 33.5734 189.872 33.2337L189.503 32.8968ZM188.716 33.2451C188.19 33.2429 187.73 32.8649 187.388 31.8784L186.915 32.0422C187.281 33.0965 187.863 33.7416 188.714 33.7451L188.716 33.2451ZM187.387 31.8766C187.257 31.5097 187.085 31.2107 186.861 31.0011C186.63 30.7863 186.354 30.6743 186.041 30.6731L186.039 31.1731C186.223 31.1738 186.379 31.2357 186.519 31.3666C186.665 31.5027 186.801 31.7214 186.916 32.044L187.387 31.8766ZM186.041 30.6731C185.344 30.6702 184.571 31.1376 183.734 31.954L184.083 32.312C184.905 31.5104 185.553 31.1711 186.039 31.1731L186.041 30.6731ZM183.735 31.9526C182.882 32.7705 182.319 33.6389 182.067 34.5596L182.549 34.6918C182.771 33.8794 183.275 33.086 184.081 32.3135L183.735 31.9526ZM182.067 34.5596C181.82 35.4569 181.698 36.6726 181.692 38.1964L182.192 38.1984C182.198 36.693 182.32 35.5275 182.549 34.6918L182.067 34.5596ZM181.692 38.1964L181.68 41.2119L182.18 41.2139L182.192 38.1984L181.692 38.1964ZM181.68 41.2119C181.672 43.0119 181.688 44.1603 181.729 44.642L182.227 44.6001C182.189 44.1452 182.172 43.0215 182.18 41.2139L181.68 41.2119ZM181.729 44.6493C181.79 45.1787 182.019 45.6045 182.426 45.8998L182.719 45.4952C182.44 45.292 182.273 45.0002 182.226 44.5929L181.729 44.6493ZM182.426 45.8998C182.837 46.1989 183.521 46.3232 184.408 46.3268L184.41 45.8268C183.535 45.8232 182.994 45.6946 182.719 45.4952L182.426 45.8998ZM184.408 46.3268L184.986 46.3291L184.989 45.8291L184.41 45.8268L184.408 46.3268ZM184.737 46.0781L184.734 47.0282L185.234 47.0302L185.237 46.0801L184.737 46.0781ZM184.985 46.7792L176 46.7427L175.998 47.2427L184.983 47.2792L184.985 46.7792ZM176.249 46.9937L176.253 46.0436L175.753 46.0416L175.749 46.9917L176.249 46.9937ZM176.002 46.2926L176.436 46.2944L176.438 45.7944L176.004 45.7926L176.002 46.2926ZM176.436 46.2944C177.27 46.2978 177.918 46.1919 178.328 45.9322L178.06 45.5099C177.779 45.688 177.256 45.7977 176.438 45.7944L176.436 46.2944ZM178.33 45.9308C178.746 45.6611 179.002 45.2784 179.084 44.795L178.591 44.7108C178.533 45.0531 178.359 45.3157 178.058 45.5113L178.33 45.9308ZM179.084 44.795C179.159 44.3567 179.198 43.1472 179.206 41.2018L178.706 41.1998C178.698 43.165 178.658 44.3235 178.591 44.7108L179.084 44.795ZM179.206 41.2018L179.225 36.4308L178.725 36.4287L178.706 41.1998L179.206 41.2018ZM179.225 36.4308C179.232 34.6188 179.21 33.4654 179.154 32.9924L178.658 33.0506C178.709 33.4868 178.732 34.6056 178.725 36.4287L179.225 36.4308ZM179.155 33.0005C179.111 32.4686 178.888 32.0397 178.479 31.7428L178.185 32.1474C178.463 32.349 178.623 32.6378 178.657 33.0425L179.155 33.0005ZM178.484 31.7467C178.071 31.4302 177.385 31.2989 176.497 31.2952L176.495 31.7952C177.368 31.7988 177.907 31.9341 178.18 32.1436L178.484 31.7467ZM176.497 31.2952L176.063 31.2935L176.061 31.7935L176.495 31.7952L176.497 31.2952ZM176.312 31.5445L176.316 30.6151L175.816 30.613L175.812 31.5425L176.312 31.5445ZM176.094 30.8625C177.411 30.7137 179.124 30.3092 181.226 29.6548L181.077 29.1774C178.988 29.8278 177.31 30.222 176.038 30.3656L176.094 30.8625ZM180.916 29.5013C181.298 30.5548 181.511 31.9642 181.545 33.7402L182.045 33.7307C182.011 31.9264 181.794 30.4562 181.386 29.3309L180.916 29.5013ZM206.675 35.9226L206.674 36.1726L206.935 36.1736L206.924 35.9126L206.675 35.9226ZM194.881 35.8747L194.882 35.6247L194.648 35.6237L194.632 35.8568L194.881 35.8747ZM196.148 44.4101L195.934 44.5402L195.936 44.5424L196.148 44.4101ZM205.653 43.3127L205.654 43.0627L205.495 43.0621L205.427 43.2061L205.653 43.3127ZM206.645 43.3167L206.883 43.3925L206.986 43.0681L206.646 43.0667L206.645 43.3167ZM204.008 46.6107L204.136 46.8256L204.137 46.8246L204.008 46.6107ZM195.663 46.6801L195.538 46.8963L195.54 46.8978L195.663 46.6801ZM193.74 32.1316L193.926 32.2986L193.926 32.2979L193.74 32.1316ZM203.063 35.0817L203.062 35.3317L203.282 35.3326L203.311 35.1151L203.063 35.0817ZM202.066 31.4219L201.892 31.6015L201.896 31.6049L202.066 31.4219ZM194.967 35.0489L194.72 35.0096L194.674 35.2977L194.966 35.2989L194.967 35.0489ZM206.676 35.6726L194.882 35.6247L194.88 36.1247L206.674 36.1726L206.676 35.6726ZM194.632 35.8568C194.573 36.6701 194.543 37.2827 194.541 37.6909L195.041 37.6929C195.043 37.3025 195.072 36.7037 195.13 35.8926L194.632 35.8568ZM194.541 37.6909C194.529 40.6831 194.982 42.9774 195.934 44.5401L196.361 44.28C195.48 42.8335 195.029 40.6491 195.041 37.6929L194.541 37.6909ZM195.936 44.5424C196.914 46.1105 198.384 46.8999 200.31 46.9077L200.312 46.4077C198.547 46.4005 197.242 45.6915 196.36 44.2778L195.936 44.5424ZM200.31 46.9077C201.601 46.9129 202.721 46.628 203.658 46.041C204.596 45.4538 205.335 44.5748 205.879 43.4193L205.427 43.2061C204.916 44.2907 204.236 45.0894 203.393 45.6172C202.55 46.1451 201.527 46.4126 200.312 46.4077L200.31 46.9077ZM205.652 43.5627L206.643 43.5667L206.646 43.0667L205.654 43.0627L205.652 43.5627ZM206.406 43.2409C205.979 44.5834 205.14 45.6334 203.879 46.3968L204.137 46.8246C205.498 46.0014 206.417 44.8555 206.883 43.3925L206.406 43.2409ZM203.88 46.3958C202.608 47.152 201.226 47.5267 199.729 47.5206L199.727 48.0206C201.314 48.0271 202.785 47.6286 204.136 46.8256L203.88 46.3958ZM199.729 47.5206C198.341 47.515 197.028 47.1632 195.786 46.4624L195.54 46.8978C196.854 47.6395 198.251 48.0147 199.727 48.0206L199.729 47.5206ZM195.789 46.464C194.563 45.7513 193.557 44.7518 192.771 43.46L192.344 43.72C193.171 45.0785 194.236 46.1391 195.538 46.8962L195.789 46.464ZM192.771 43.46C191.992 42.182 191.601 40.6239 191.608 38.7737L191.108 38.7716C191.1 40.6943 191.508 42.3477 192.344 43.72L192.771 43.46ZM191.608 38.7737C191.619 36.1551 192.395 34.0031 193.926 32.2986L193.554 31.9646C191.93 33.7724 191.119 36.0477 191.108 38.7716L191.608 38.7737ZM193.926 32.2979C195.456 30.5811 197.353 29.7319 199.636 29.7411L199.638 29.2411C197.211 29.2313 195.177 30.1423 193.553 31.9653L193.926 32.2979ZM199.636 29.7411C201.799 29.7499 203.436 30.4126 204.585 31.7024L204.958 31.3698C203.694 29.951 201.909 29.2504 199.638 29.2411L199.636 29.7411ZM204.585 31.7024C205.759 33.0205 206.365 34.4291 206.425 35.9325L206.924 35.9126C206.859 34.2761 206.197 32.7604 204.958 31.3698L204.585 31.7024ZM203.311 35.1151C203.355 34.7907 203.378 34.4974 203.379 34.2362L202.879 34.2342C202.878 34.4686 202.857 34.7397 202.816 35.0484L203.311 35.1151ZM203.379 34.2362C203.384 32.9729 203.013 31.9614 202.237 31.2389L201.896 31.6049C202.546 32.21 202.884 33.074 202.879 34.2342L203.379 34.2362ZM202.24 31.2423C201.491 30.5169 200.562 30.1537 199.469 30.1492L199.467 30.6492C200.439 30.6532 201.242 30.9717 201.892 31.6014L202.24 31.2423ZM199.469 30.1492C198.16 30.1439 197.089 30.5483 196.284 31.3801C195.485 32.2054 194.972 33.4262 194.72 35.0096L195.214 35.0881C195.457 33.5617 195.941 32.4525 196.643 31.7279C197.338 31.0099 198.27 30.6444 199.467 30.6492L199.469 30.1492ZM194.966 35.2989L203.062 35.3317L203.064 34.8317L194.968 34.7989L194.966 35.2989ZM224.184 32.0693L224.016 32.2536L224.432 32.6355L224.434 32.0703L224.184 32.0693ZM224.142 22.0518L223.893 22.0728L223.894 22.08L224.142 22.0518ZM221.298 20.5944L221.048 20.5934L221.047 20.8434L221.297 20.8444L221.298 20.5944ZM221.302 19.6443L221.297 19.3944L221.053 19.3994L221.052 19.6433L221.302 19.6443ZM226.779 18.7991L226.78 18.5491L226.747 18.549L226.714 18.5575L226.779 18.7991ZM227.213 18.8009L227.463 18.8019L227.464 18.5519L227.214 18.5509L227.213 18.8009ZM227.845 46.0879L227.719 46.3039L227.723 46.3059L227.845 46.0879ZM229.889 46.406L230.139 46.407L230.14 46.157L229.89 46.156L229.889 46.406ZM229.885 47.3561L229.889 47.606L230.134 47.602L230.135 47.3571L229.885 47.3561ZM224.554 47.8714L224.312 47.9323L224.369 48.1631L224.603 48.1166L224.554 47.8714ZM224.319 44.8136L224.569 44.8146L224.571 44.2111L224.143 44.6361L224.319 44.8136ZM221.149 47.0934L221.044 46.8666L221.043 46.8671L221.149 47.0934ZM212.131 45.1772L211.944 45.3436L211.945 45.3444L212.131 45.1772ZM212.246 32.1035L212.426 32.2773L212.426 32.2766L212.246 32.1035ZM224.18 33.2673L224.43 33.2683L224.43 33.1539L224.344 33.0787L224.18 33.2673ZM221.44 31.5005L221.338 31.729L221.342 31.7308L221.44 31.5005ZM214.784 32.6715L214.597 32.5062L214.596 32.5074L214.784 32.6715ZM214.777 44.6303L214.582 44.7869L214.583 44.7882L214.777 44.6303ZM224.137 43.6563L224.335 43.8088L224.387 43.7418L224.387 43.6573L224.137 43.6563ZM224.434 32.0703L224.461 25.461L223.961 25.459L223.934 32.0683L224.434 32.0703ZM224.461 25.461C224.469 23.6623 224.446 22.5097 224.391 22.0236L223.894 22.08C223.945 22.5306 223.969 23.6502 223.961 25.459L224.461 25.461ZM224.392 22.0308C224.347 21.4988 224.124 21.07 223.715 20.7731L223.422 21.1777C223.699 21.3793 223.859 21.6681 223.893 22.0727L224.392 22.0308ZM223.715 20.7731C223.304 20.474 222.62 20.3498 221.733 20.3462L221.731 20.8462C222.606 20.8497 223.147 20.9783 223.422 21.1777L223.715 20.7731ZM221.733 20.3462L221.299 20.3444L221.297 20.8444L221.731 20.8462L221.733 20.3462ZM221.548 20.5954L221.552 19.6454L221.052 19.6433L221.048 20.5934L221.548 20.5954ZM221.307 19.8943C222.997 19.8592 224.843 19.5736 226.843 19.0407L226.714 18.5575C224.745 19.0825 222.939 19.3603 221.297 19.3944L221.307 19.8943ZM226.778 19.0491L227.212 19.0509L227.214 18.5509L226.78 18.5491L226.778 19.0491ZM226.963 18.7998L226.87 41.5399L227.37 41.542L227.463 18.8019L226.963 18.7998ZM226.87 41.5399C226.862 43.4997 226.891 44.7222 226.962 45.174L227.456 45.0964C227.393 44.6939 227.362 43.5203 227.37 41.542L226.87 41.5399ZM226.962 45.174C227.04 45.6715 227.294 46.0561 227.72 46.3039L227.971 45.8718C227.682 45.7037 227.512 45.4532 227.456 45.0964L226.962 45.174ZM227.723 46.3059C227.946 46.4308 228.242 46.5153 228.596 46.5705C228.953 46.626 229.384 46.6539 229.888 46.656L229.89 46.156C229.402 46.154 228.997 46.1269 228.673 46.0764C228.346 46.0255 228.116 45.953 227.968 45.8698L227.723 46.3059ZM229.639 46.405L229.635 47.3551L230.135 47.3571L230.139 46.407L229.639 46.405ZM229.881 47.1061C227.873 47.1395 226.08 47.3123 224.505 47.6263L224.603 48.1166C226.142 47.8098 227.904 47.6391 229.889 47.606L229.881 47.1061ZM224.796 47.8106C224.642 47.1948 224.563 46.2019 224.569 44.8146L224.069 44.8126C224.063 46.2068 224.141 47.2524 224.312 47.9323L224.796 47.8106ZM224.143 44.6361C223.136 45.6345 222.103 46.3759 221.044 46.8666L221.254 47.3202C222.375 46.8008 223.455 46.0224 224.495 44.9911L224.143 44.6361ZM221.043 46.8671C219.999 47.3569 218.92 47.5986 217.801 47.594L217.799 48.094C218.994 48.0989 220.147 47.8401 221.255 47.3197L221.043 46.8671ZM217.801 47.594C215.689 47.5854 213.864 46.7317 212.317 45.0101L211.945 45.3444C213.578 47.1607 215.533 48.0848 217.799 48.094L217.801 47.594ZM212.318 45.0109C210.785 43.2909 210.022 41.2141 210.032 38.7659L209.532 38.7638C209.521 41.3276 210.324 43.5258 211.944 45.3436L212.318 45.0109ZM210.032 38.7659C210.043 36.0645 210.847 33.91 212.426 32.2773L212.066 31.9297C210.382 33.671 209.543 35.9574 209.532 38.7638L210.032 38.7659ZM212.426 32.2766C214.013 30.6224 215.887 29.8071 218.059 29.8159L218.061 29.3159C215.745 29.3065 213.742 30.183 212.066 31.9304L212.426 32.2766ZM218.059 29.8159C219.171 29.8205 220.219 30.0255 221.206 30.43L221.395 29.9674C220.347 29.5375 219.235 29.3207 218.061 29.3159L218.059 29.8159ZM221.206 30.43C222.193 30.8348 223.129 31.4414 224.016 32.2536L224.353 31.885C223.429 31.0376 222.443 30.3971 221.395 29.9674L221.206 30.43ZM224.344 33.0787C223.422 32.2762 222.487 31.6716 221.537 31.2702L221.342 31.7308C222.235 32.108 223.126 32.6812 224.015 33.4558L224.344 33.0787ZM221.541 31.272C220.605 30.8561 219.656 30.6443 218.696 30.6404L218.694 31.1404C219.579 31.144 220.46 31.339 221.338 31.729L221.541 31.272ZM218.696 30.6404C217.066 30.6338 215.694 31.2598 214.597 32.5062L214.972 32.8367C215.977 31.6958 217.212 31.1344 218.694 31.1404L218.696 30.6404ZM214.596 32.5074C213.499 33.7691 212.972 35.7966 212.961 38.5299L213.461 38.5319C213.472 35.8401 213.994 33.9613 214.973 32.8355L214.596 32.5074ZM212.961 38.5299C212.95 41.3074 213.475 43.4092 214.582 44.7869L214.972 44.4737C213.969 43.2266 213.45 41.2622 213.461 38.5319L212.961 38.5299ZM214.583 44.7882C215.695 46.1535 217.083 46.8518 218.734 46.8586L218.736 46.3586C217.247 46.3525 215.997 45.7321 214.971 44.4725L214.583 44.7882ZM218.734 46.8586C219.821 46.863 220.835 46.6089 221.77 46.096L221.53 45.6576C220.671 46.1288 219.741 46.3626 218.736 46.3586L218.734 46.8586ZM221.77 46.096C222.703 45.5841 223.558 44.8186 224.335 43.8088L223.939 43.5037C223.195 44.4705 222.391 45.1854 221.53 45.6576L221.77 46.096ZM224.387 43.6573L224.43 33.2683L223.93 33.2663L223.887 43.6552L224.387 43.6573ZM252.76 19.297L252.761 19.047L252.511 19.046L252.51 19.296L252.76 19.297ZM262.116 19.335L262.366 19.336L262.367 19.086L262.117 19.085L262.116 19.335ZM262.112 20.2851L262.128 20.5346L262.361 20.52L262.362 20.2861L262.112 20.2851ZM259.321 21.1206L259.473 21.319L259.473 21.3185L259.321 21.1206ZM257.63 40.7767L257.383 40.7346L257.383 40.7375L257.63 40.7767ZM256.005 44.1781L255.811 44.0208L255.809 44.0223L256.005 44.1781ZM240.34 46.5104L240.227 46.7339L240.23 46.735L240.34 46.5104ZM236.656 43.2114L236.435 43.3294L236.437 43.3321L236.656 43.2114ZM235.583 37.7956L235.333 37.7928L235.333 37.7946L235.583 37.7956ZM235.615 34.9247L235.865 34.9276L235.865 34.9258L235.615 34.9247ZM235.462 21.8912L235.216 21.9372L235.217 21.9422L235.462 21.8912ZM234.641 20.5453L234.512 20.7592L234.515 20.761L234.641 20.5453ZM231.255 20.1598L231.005 20.1588L231.004 20.4088L231.254 20.4098L231.255 20.1598ZM231.259 19.2097L231.26 18.9597L231.01 18.9587L231.009 19.2087L231.259 19.2097ZM244.044 19.2616L244.294 19.2626L244.295 19.0126L244.045 19.0116L244.044 19.2616ZM244.04 20.2117L244.039 20.4617L244.289 20.4627L244.29 20.2127L244.04 20.2117ZM240.775 20.5496L240.889 20.7723L240.895 20.7693L240.775 20.5496ZM239.903 21.806L239.66 21.7456L239.659 21.7507L239.903 21.806ZM240.029 41.5521L239.785 41.6036L239.785 41.6061L240.029 41.5521ZM242.411 44.9284L242.262 45.1291L242.264 45.1301L242.411 44.9284ZM252.282 45.4435L252.385 45.6715L252.386 45.671L252.282 45.4435ZM255.411 43.0603L255.208 42.9142L255.207 42.9147L255.411 43.0603ZM256.682 40.1119L256.93 40.1502L256.93 40.1497L256.682 40.1119ZM252.756 20.2471L252.506 20.2461L252.505 20.4805L252.739 20.4965L252.756 20.2471ZM252.759 19.547L262.115 19.585L262.117 19.085L252.761 19.047L252.759 19.547ZM261.866 19.334L261.862 20.2841L262.362 20.2861L262.366 19.336L261.866 19.334ZM262.097 20.0356C260.834 20.1146 259.846 20.3997 259.168 20.9226L259.473 21.3185C260.039 20.8826 260.912 20.6107 262.128 20.5346L262.097 20.0356ZM259.169 20.9221C258.527 21.4136 258.112 21.988 257.956 22.6488L258.442 22.764C258.566 22.2418 258.899 21.759 259.473 21.319L259.169 20.9221ZM257.956 22.6488C257.808 23.2724 257.735 24.4499 257.728 26.1538L258.228 26.1558C258.235 24.4449 258.31 23.3235 258.442 22.764L257.956 22.6488ZM257.728 26.1538L257.691 35.4688L258.191 35.4708L258.228 26.1558L257.728 26.1538ZM257.691 35.4688C257.681 37.8481 257.577 39.6 257.383 40.7346L257.876 40.8188C258.077 39.6417 258.181 37.8556 258.191 35.4708L257.691 35.4688ZM257.383 40.7375C257.208 41.8414 256.689 42.9357 255.811 44.0208L256.199 44.3353C257.12 43.1971 257.685 42.0237 257.877 40.8159L257.383 40.7375ZM255.809 44.0223C254.956 45.0936 253.745 45.9537 252.162 46.5956L252.35 47.0589C253.994 46.392 255.283 45.486 256.201 44.3339L255.809 44.0223ZM252.162 46.5956C250.584 47.2355 248.757 47.5545 246.676 47.546L246.674 48.046C248.807 48.0547 250.7 47.7278 252.35 47.0589L252.162 46.5956ZM246.676 47.546C244.211 47.536 242.139 47.1121 240.449 46.2858L240.23 46.735C242.003 47.6026 244.155 48.0358 246.674 48.046L246.676 47.546ZM240.452 46.2869C238.767 45.443 237.583 44.3748 236.875 43.0907L236.437 43.3321C237.205 44.7252 238.476 45.8564 240.228 46.7339L240.452 46.2869ZM236.876 43.0933C236.179 41.7908 235.824 40.0314 235.833 37.7966L235.333 37.7946C235.324 40.0761 235.684 41.9272 236.435 43.3294L236.876 43.0933ZM235.833 37.7984L235.865 34.9276L235.365 34.9219L235.333 37.7928L235.833 37.7984ZM235.865 34.9258L235.901 26.2097L235.401 26.2077L235.365 34.9237L235.865 34.9258ZM235.901 26.2097C235.91 23.9859 235.848 22.5186 235.706 21.8402L235.217 21.9422C235.346 22.5592 235.41 23.9703 235.401 26.2077L235.901 26.2097ZM235.707 21.8452C235.578 21.1515 235.275 20.6271 234.767 20.3296L234.515 20.761C234.859 20.9628 235.103 21.3355 235.216 21.9372L235.707 21.8452ZM234.771 20.3315C234.52 20.1795 234.146 20.0798 233.68 20.0148C233.207 19.9489 232.612 19.9153 231.897 19.9124L231.895 20.4124C232.598 20.4153 233.169 20.4484 233.611 20.5101C234.06 20.5727 234.35 20.6616 234.512 20.7592L234.771 20.3315ZM231.897 19.9124L231.256 19.9098L231.254 20.4098L231.895 20.4124L231.897 19.9124ZM231.505 20.1608L231.509 19.2107L231.009 19.2087L231.005 20.1588L231.505 20.1608ZM231.258 19.4597L244.043 19.5116L244.045 19.0116L231.26 18.9597L231.258 19.4597ZM243.794 19.2606L243.79 20.2107L244.29 20.2127L244.294 19.2626L243.794 19.2606ZM244.041 19.9617L243.484 19.9594L243.481 20.4594L244.039 20.4617L244.041 19.9617ZM243.484 19.9594C242.789 19.9566 242.208 19.9837 241.742 20.0422C241.282 20.1 240.912 20.191 240.656 20.3299L240.895 20.7693C241.067 20.6758 241.362 20.5939 241.804 20.5383C242.241 20.4835 242.799 20.4567 243.481 20.4594L243.484 19.9594ZM240.662 20.327C240.15 20.5884 239.826 21.0808 239.66 21.7456L240.145 21.8663C240.288 21.2931 240.545 20.9479 240.889 20.7722L240.662 20.327ZM239.659 21.7507C239.511 22.4022 239.438 23.9058 239.428 26.2241L239.928 26.2261C239.938 23.8903 240.014 22.4478 240.147 21.8612L239.659 21.7507ZM239.428 26.2241L239.393 35.0433L239.893 35.0454L239.928 26.2261L239.428 26.2241ZM239.393 35.0433C239.38 38.1007 239.508 40.2935 239.785 41.6036L240.274 41.5005C240.01 40.2473 239.88 38.1016 239.893 35.0454L239.393 35.0433ZM239.785 41.6061C240.085 42.9596 240.922 44.1329 242.262 45.1291L242.56 44.7277C241.293 43.7856 240.541 42.708 240.273 41.498L239.785 41.6061ZM242.264 45.1301C243.623 46.1258 245.42 46.6158 247.63 46.6247L247.632 46.1247C245.491 46.1161 243.808 45.6418 242.559 44.7267L242.264 45.1301ZM247.63 46.6247C249.369 46.6318 250.955 46.3155 252.385 45.6715L252.179 45.2156C250.822 45.827 249.308 46.1315 247.632 46.1247L247.63 46.6247ZM252.386 45.671C253.82 45.0172 254.903 44.1985 255.614 43.2059L255.207 42.9147C254.561 43.8168 253.558 44.587 252.178 45.216L252.386 45.671ZM255.613 43.2065C256.325 42.2187 256.767 41.1996 256.93 40.1502L256.435 40.0737C256.287 41.0333 255.881 41.9798 255.208 42.9142L255.613 43.2065ZM256.93 40.1497C257.088 39.112 257.17 37.4996 257.179 35.3221L256.679 35.3201C256.67 37.4937 256.588 39.0752 256.435 40.0741L256.93 40.1497ZM257.179 35.3221L257.218 25.7799L256.718 25.7779L256.679 35.3201L257.179 35.3221ZM257.218 25.7799C257.224 24.1966 257.14 23.0565 256.954 22.3855L256.472 22.5195C256.638 23.1168 256.724 24.1942 256.718 25.7779L257.218 25.7799ZM256.954 22.3855C256.76 21.6878 256.335 21.134 255.696 20.7289L255.429 21.1513C255.97 21.4946 256.313 21.949 256.472 22.5195L256.954 22.3855ZM255.696 20.7289C255.052 20.3208 254.066 20.0863 252.773 19.9977L252.739 20.4965C254.007 20.5835 254.892 20.811 255.429 21.1513L255.696 20.7289ZM253.006 20.2481L253.01 19.298L252.51 19.296L252.506 20.2461L253.006 20.2481ZM268.229 29.7696L268.23 29.5196L268.197 29.5195L268.166 29.5277L268.229 29.7696ZM268.787 29.7719L269.026 29.7002L268.973 29.5226L268.788 29.5219L268.787 29.7719ZM269.126 32.5616L268.876 32.5606L268.874 33.191L269.308 32.7337L269.126 32.5616ZM271.964 30.487L272.067 30.7153L272.068 30.7146L271.964 30.487ZM281.024 32.3001L280.842 32.4708L280.842 32.4715L281.024 32.3001ZM280.95 45.436L280.764 45.2697L280.763 45.2705L280.95 45.436ZM271.772 47.4229L271.874 47.1947L271.872 47.194L271.772 47.4229ZM269.074 45.553L269.248 45.3741L268.826 44.9622L268.824 45.552L269.074 45.553ZM269.136 55.55L268.889 55.5888L268.891 55.5965L269.136 55.55ZM269.793 56.5028L269.925 56.2903L269.919 56.2867L269.793 56.5028ZM271.796 56.8414L272.046 56.8424L272.047 56.5924L271.797 56.5914L271.796 56.8414ZM271.792 57.7914L271.791 58.0414L272.041 58.0425L272.042 57.7925L271.792 57.7914ZM262.952 57.7556L262.702 57.7545L262.701 58.0045L262.951 58.0056L262.952 57.7556ZM262.956 56.8055L262.957 56.5555L262.707 56.5545L262.706 56.8045L262.956 56.8055ZM265.477 56.382L265.31 56.1961L265.301 56.2045L265.477 56.382ZM265.998 55.372L265.75 55.3356L265.749 55.3453L265.998 55.372ZM266.088 33.1896L265.838 33.2105L265.839 33.2178L266.088 33.1896ZM263.057 31.7314L262.807 31.7304L262.806 31.9804L263.056 31.9814L263.057 31.7314ZM263.061 30.7814L263.037 30.5325L262.812 30.5543L262.811 30.7803L263.061 30.7814ZM269.079 44.1898L268.829 44.1888L268.829 44.2781L268.885 44.3474L269.079 44.1898ZM271.425 46.2648L271.301 46.4819L271.306 46.4842L271.425 46.2648ZM271.567 31.7247L271.689 31.9429L271.567 31.7247ZM269.121 33.9041L268.925 33.7485L268.871 33.8164L268.871 33.9031L269.121 33.9041ZM268.228 30.0196L268.786 30.0219L268.788 29.5219L268.23 29.5196L268.228 30.0196ZM268.547 29.8435C268.769 30.5854 268.881 31.4894 268.876 32.5606L269.376 32.5626C269.381 31.4582 269.266 30.5025 269.026 29.7002L268.547 29.8435ZM269.308 32.7337C270.174 31.8208 271.094 31.1502 272.067 30.7153L271.862 30.2588C270.821 30.7245 269.849 31.4369 268.945 32.3895L269.308 32.7337ZM272.068 30.7146C273.056 30.2656 274.095 30.0434 275.188 30.0479L275.19 29.5479C274.026 29.5432 272.915 29.7804 271.861 30.2594L272.068 30.7146ZM275.188 30.0479C277.463 30.0571 279.341 30.8642 280.842 32.4708L281.207 32.1295C279.609 30.4187 277.598 29.5577 275.19 29.5479L275.188 30.0479ZM280.842 32.4715C282.339 34.0609 283.093 36.1666 283.082 38.8146L283.582 38.8166C283.593 36.067 282.808 33.829 281.206 32.1287L280.842 32.4715ZM283.082 38.8146C283.071 41.4049 282.295 43.5507 280.764 45.2697L281.137 45.6023C282.759 43.7816 283.571 41.5138 283.582 38.8166L283.082 38.8146ZM280.763 45.2705C279.252 46.9818 277.267 47.8355 274.786 47.8254L274.784 48.3254C277.397 48.336 279.523 47.43 281.138 45.6015L280.763 45.2705ZM274.786 47.8254C273.774 47.8213 272.804 47.6113 271.874 47.1947L271.67 47.651C272.663 48.0959 273.702 48.321 274.784 48.3254L274.786 47.8254ZM271.872 47.194C270.955 46.7908 270.08 46.1858 269.248 45.3741L268.899 45.732C269.768 46.5795 270.692 47.2211 271.671 47.6517L271.872 47.194ZM268.824 45.552L268.798 51.9754L269.298 51.9774L269.324 45.554L268.824 45.552ZM268.798 51.9754C268.79 53.9215 268.818 55.137 268.889 55.5888L269.383 55.5112C269.32 55.1087 269.29 53.9419 269.298 51.9774L268.798 51.9754ZM268.891 55.5965C268.984 56.0907 269.244 56.4722 269.668 56.7188L269.919 56.2867C269.628 56.1173 269.45 55.8637 269.382 55.5035L268.891 55.5965ZM269.662 56.7151C269.879 56.8504 270.172 56.9413 270.52 57.0002C270.872 57.0597 271.297 57.0893 271.795 57.0914L271.797 56.5914C271.316 56.5894 270.919 56.5606 270.603 56.5072C270.285 56.4533 270.065 56.3769 269.925 56.2904L269.662 56.7151ZM271.546 56.8403L271.542 57.7904L272.042 57.7925L272.046 56.8424L271.546 56.8403ZM271.793 57.5414L262.953 57.5056L262.951 58.0056L271.791 58.0414L271.793 57.5414ZM263.202 57.7566L263.206 56.8065L262.706 56.8045L262.702 57.7545L263.202 57.7566ZM262.955 57.0555L263.574 57.058L263.576 56.558L262.957 56.5555L262.955 57.0555ZM263.574 57.058C264.073 57.06 264.497 57.025 264.839 56.9484C265.177 56.8726 265.46 56.7507 265.653 56.5595L265.301 56.2045C265.204 56.3012 265.025 56.3943 264.729 56.4605C264.437 56.5259 264.055 56.5599 263.576 56.558L263.574 57.058ZM265.645 56.5676C265.993 56.2532 266.197 55.8604 266.246 55.3987L265.749 55.3453C265.713 55.6819 265.569 55.9624 265.31 56.1963L265.645 56.5676ZM266.245 55.4084C266.305 55.001 266.336 53.8429 266.344 51.9654L265.844 51.9634C265.836 53.8587 265.804 54.9724 265.75 55.3357L266.245 55.4084ZM266.344 51.9654L266.406 36.5988L265.906 36.5968L265.844 51.9634L266.344 51.9654ZM266.406 36.5988C266.414 34.8001 266.391 33.6475 266.336 33.1614L265.839 33.2178C265.89 33.6684 265.914 34.788 265.906 36.5968L266.406 36.5988ZM266.337 33.1686C266.292 32.6366 266.069 32.2078 265.661 31.9109L265.367 32.3155C265.644 32.5171 265.804 32.8058 265.839 33.2105L266.337 33.1686ZM265.661 31.9109C265.249 31.6118 264.566 31.4876 263.678 31.484L263.676 31.984C264.551 31.9875 265.092 32.1161 265.367 32.3155L265.661 31.9109ZM263.678 31.484L263.058 31.4814L263.056 31.9814L263.676 31.984L263.678 31.484ZM263.307 31.7325L263.311 30.7824L262.811 30.7803L262.807 31.7304L263.307 31.7325ZM263.085 31.0302C264.467 30.8963 266.204 30.5556 268.292 30.0115L268.166 29.5277C266.091 30.0684 264.383 30.4021 263.037 30.5325L263.085 31.0302ZM268.885 44.3474C269.64 45.2777 270.445 45.9918 271.301 46.4818L271.55 46.0478C270.758 45.5948 269.998 44.9256 269.273 44.0323L268.885 44.3474ZM271.306 46.4842C272.179 46.9612 273.1 47.2032 274.065 47.2071L274.067 46.7071C273.188 46.7036 272.348 46.484 271.545 46.0454L271.306 46.4842ZM274.065 47.2071C275.704 47.2138 277.129 46.5119 278.332 45.1346L277.955 44.8058C276.833 46.0903 275.54 46.7131 274.067 46.7071L274.065 47.2071ZM278.332 45.1346C279.552 43.737 280.142 41.5389 280.154 38.5962L279.654 38.5941C279.642 41.4896 279.059 43.5416 277.955 44.8058L278.332 45.1346ZM280.154 38.5962C280.165 36.0316 279.609 34.065 278.442 32.743L278.067 33.0739C279.12 34.267 279.664 36.0915 279.654 38.5941L280.154 38.5962ZM278.442 32.743C277.289 31.4373 275.897 30.7694 274.277 30.7628L274.275 31.2628C275.739 31.2687 276.999 31.8646 278.067 33.0739L278.442 32.743ZM274.277 30.7628C273.282 30.7587 272.337 31.0077 271.445 31.5065L271.689 31.9429C272.508 31.4848 273.369 31.2591 274.275 31.2628L274.277 30.7628ZM271.445 31.5065C270.554 32.0045 269.715 32.7552 268.925 33.7485L269.317 34.0597C270.077 33.1041 270.868 32.4018 271.689 31.9429L271.445 31.5065ZM268.871 33.9031L268.829 44.1888L269.329 44.1909L269.371 33.9051L268.871 33.9031Z" fill="#516A8E"/>
  <path d="M69.2 66.2C54.8 64 53.6 51.1 53.5 49.3C53.5 48.2 53.5 47.2 53.5 46.2L53.7 7.4V4L53.5 3.7L50.7 0L47.9 3.7V7.4L47.7 49.8C47.2 54.8 45.4 58.8 42.4 61.8C38.8 65.4 33.6 67.2 26.9 67.2C20 67.2 14.7 65.3 11.1 61.7C7.49999 58.1 5.69999 52.8 5.79999 45.9L6 0H0.199997L0 45.9C0 54.2 2.19999 60.6 6.79999 65.3C11.4 70 17.9 72.3 26.4 72.4C35 72.4 48.4 71.5 48.4 71.5L86.7 71.7V66.5L69.2 66.2Z" fill="#516A8E"/>
</svg>
